<?xml version="1.0" encoding="utf-8"?>
<!-- Generator: Adobe Illustrator 27.5.0, SVG Export Plug-In . SVG Version: 6.00 Build 0)  -->
<svg version="1.1" xmlns="http://www.w3.org/2000/svg" xmlns:xlink="http://www.w3.org/1999/xlink" x="0px" y="0px"
	 viewBox="0 0 1200 1200" style="enable-background:new 0 0 1200 1200;" xml:space="preserve">
<g id="Background">
	<rect style="fill:#323234;" width="1200" height="1200"/>
</g>
<g id="Graphic_elements">
	<g>
		<path style="fill:none;stroke:#D7BE8A;stroke-width:7;stroke-linecap:round;stroke-linejoin:round;stroke-miterlimit:10;" d="
			M624.035,575.965c-1.98-38.117-7.796-112.337-24.034-153.512l0,0v0c-16.239,41.175-22.054,115.395-24.034,153.512
			C540.802,577.766,443.28,600,443.28,600c41.175,16.239,94.568,22.054,132.685,24.034c1.98,38.117,7.795,112.337,24.034,153.512
			l0,0v0c16.239-41.175,22.054-115.394,24.034-153.512c38.117-1.98,91.51-7.795,132.685-24.034
			C756.719,600,662.152,577.945,624.035,575.965z"/>
		<g>
			<g>
				<g>
					
						<line style="fill:none;stroke:#D7BE8A;stroke-width:7;stroke-linecap:round;stroke-linejoin:round;stroke-miterlimit:10;" x1="324.883" y1="600" x2="414.11" y2="600"/>
					
						<line style="fill:none;stroke:#D7BE8A;stroke-width:7;stroke-linecap:round;stroke-linejoin:round;stroke-miterlimit:10;" x1="785.89" y1="600" x2="875.117" y2="600"/>
				</g>
				<g>
					
						<line style="fill:none;stroke:#D7BE8A;stroke-width:7;stroke-linecap:round;stroke-linejoin:round;stroke-miterlimit:10;" x1="600" y1="324.883" x2="600" y2="398.596"/>
					
						<line style="fill:none;stroke:#D7BE8A;stroke-width:7;stroke-linecap:round;stroke-linejoin:round;stroke-miterlimit:10;" x1="600" y1="801.404" x2="600" y2="875.117"/>
				</g>
			</g>
			<g>
				<g>
					
						<line style="fill:none;stroke:#D7BE8A;stroke-width:7;stroke-linecap:round;stroke-linejoin:round;stroke-miterlimit:10;" x1="453.251" y1="453.25" x2="499.372" y2="499.371"/>
					
						<line style="fill:none;stroke:#D7BE8A;stroke-width:7;stroke-linecap:round;stroke-linejoin:round;stroke-miterlimit:10;" x1="418.074" y1="418.074" x2="438.451" y2="438.451"/>
					
						<line style="fill:none;stroke:#D7BE8A;stroke-width:7;stroke-linecap:round;stroke-linejoin:round;stroke-miterlimit:10;" x1="747.034" y1="747.034" x2="700.913" y2="700.912"/>
					
						<line style="fill:none;stroke:#D7BE8A;stroke-width:7;stroke-linecap:round;stroke-linejoin:round;stroke-miterlimit:10;" x1="782.21" y1="782.21" x2="761.833" y2="761.833"/>
				</g>
				<g>
					
						<line style="fill:none;stroke:#D7BE8A;stroke-width:7;stroke-linecap:round;stroke-linejoin:round;stroke-miterlimit:10;" x1="499.372" y1="700.628" x2="451.07" y2="748.93"/>
				</g>
				
					<line style="fill:none;stroke:#D7BE8A;stroke-width:7;stroke-linecap:round;stroke-linejoin:round;stroke-miterlimit:10;" x1="747.034" y1="453.25" x2="700.913" y2="499.371"/>
				
					<line style="fill:none;stroke:#D7BE8A;stroke-width:7;stroke-linecap:round;stroke-linejoin:round;stroke-miterlimit:10;" x1="782.21" y1="418.074" x2="761.833" y2="438.451"/>
				
					<line style="fill:none;stroke:#D7BE8A;stroke-width:7;stroke-linecap:round;stroke-linejoin:round;stroke-miterlimit:10;" x1="418.074" y1="782.21" x2="438.451" y2="761.833"/>
			</g>
			<g>
				<g>
					
						<line style="fill:none;stroke:#D7BE8A;stroke-width:7;stroke-linecap:round;stroke-linejoin:round;stroke-miterlimit:10;" x1="406.233" y1="517.449" x2="469.076" y2="544.223"/>
					
						<line style="fill:none;stroke:#D7BE8A;stroke-width:7;stroke-linecap:round;stroke-linejoin:round;stroke-miterlimit:10;" x1="730.924" y1="655.777" x2="793.767" y2="682.55"/>
				</g>
				<g>
					
						<line style="fill:none;stroke:#D7BE8A;stroke-width:7;stroke-linecap:round;stroke-linejoin:round;stroke-miterlimit:10;" x1="682.55" y1="406.233" x2="655.777" y2="469.076"/>
					
						<line style="fill:none;stroke:#D7BE8A;stroke-width:7;stroke-linecap:round;stroke-linejoin:round;stroke-miterlimit:10;" x1="544.223" y1="730.924" x2="517.45" y2="793.767"/>
				</g>
			</g>
			<g>
				<g>
					
						<line style="fill:none;stroke:#D7BE8A;stroke-width:7;stroke-linecap:round;stroke-linejoin:round;stroke-miterlimit:10;" x1="521.358" y1="404.614" x2="546.863" y2="467.982"/>
					
						<line style="fill:none;stroke:#D7BE8A;stroke-width:7;stroke-linecap:round;stroke-linejoin:round;stroke-miterlimit:10;" x1="653.137" y1="732.018" x2="678.642" y2="795.386"/>
				</g>
				<g>
					
						<line style="fill:none;stroke:#D7BE8A;stroke-width:7;stroke-linecap:round;stroke-linejoin:round;stroke-miterlimit:10;" x1="795.386" y1="521.358" x2="732.018" y2="546.863"/>
					
						<line style="fill:none;stroke:#D7BE8A;stroke-width:7;stroke-linecap:round;stroke-linejoin:round;stroke-miterlimit:10;" x1="467.982" y1="653.136" x2="404.614" y2="678.642"/>
				</g>
			</g>
		</g>
	</g>
</g>
</svg>
