<?xml version="1.0" encoding="utf-8"?>
<!-- Generator: Adobe Illustrator 16.0.0, SVG Export Plug-In . SVG Version: 6.00 Build 0)  -->
<!DOCTYPE svg PUBLIC "-//W3C//DTD SVG 1.1//EN" "http://www.w3.org/Graphics/SVG/1.1/DTD/svg11.dtd">
<svg version="1.1" id="圖層_1" xmlns="http://www.w3.org/2000/svg" xmlns:xlink="http://www.w3.org/1999/xlink" x="0px" y="0px"
	 width="299px" height="300px" viewBox="155.5 244.5 299 300" enable-background="new 155.5 244.5 299 300" xml:space="preserve">
<g id="Graphic_elements">
	<g>
		<path fill="none" stroke="#D7BE8A" stroke-width="7" stroke-linecap="round" stroke-linejoin="round" stroke-miterlimit="10" d="
			M318.258,383.742c-1.011-19.439-3.978-57.292-12.258-78.291l0,0l0,0c-8.282,20.999-11.247,58.852-12.257,78.291
			C275.809,384.661,226.073,396,226.073,396c21,8.281,48.229,11.248,67.671,12.258c1.01,19.439,3.975,57.291,12.256,78.291l0,0l0,0
			c8.282-21,11.247-58.852,12.258-78.291c19.439-1.01,46.671-3.977,67.67-12.258C385.926,396,337.698,384.752,318.258,383.742z"/>
		<g>
			<g>
				<g>
					
						<line fill="none" stroke="#D7BE8A" stroke-width="7" stroke-linecap="round" stroke-linejoin="round" stroke-miterlimit="10" x1="165.691" y1="396" x2="211.197" y2="396"/>
					
						<line fill="none" stroke="#D7BE8A" stroke-width="7" stroke-linecap="round" stroke-linejoin="round" stroke-miterlimit="10" x1="400.804" y1="396" x2="446.31" y2="396"/>
				</g>
				<g>
					
						<line fill="none" stroke="#D7BE8A" stroke-width="7" stroke-linecap="round" stroke-linejoin="round" stroke-miterlimit="10" x1="306" y1="255.69" x2="306" y2="293.284"/>
					
						<line fill="none" stroke="#D7BE8A" stroke-width="7" stroke-linecap="round" stroke-linejoin="round" stroke-miterlimit="10" x1="306" y1="498.716" x2="306" y2="536.31"/>
				</g>
			</g>
			<g>
				<g>
					
						<line fill="none" stroke="#D7BE8A" stroke-width="7" stroke-linecap="round" stroke-linejoin="round" stroke-miterlimit="10" x1="231.158" y1="321.158" x2="254.68" y2="344.679"/>
					
						<line fill="none" stroke="#D7BE8A" stroke-width="7" stroke-linecap="round" stroke-linejoin="round" stroke-miterlimit="10" x1="213.218" y1="303.218" x2="223.61" y2="313.61"/>
					
						<line fill="none" stroke="#D7BE8A" stroke-width="7" stroke-linecap="round" stroke-linejoin="round" stroke-miterlimit="10" x1="380.988" y1="470.987" x2="357.465" y2="447.465"/>
					
						<line fill="none" stroke="#D7BE8A" stroke-width="7" stroke-linecap="round" stroke-linejoin="round" stroke-miterlimit="10" x1="398.927" y1="488.927" x2="388.533" y2="478.535"/>
				</g>
				<g>
					
						<line fill="none" stroke="#D7BE8A" stroke-width="7" stroke-linecap="round" stroke-linejoin="round" stroke-miterlimit="10" x1="254.68" y1="447.32" x2="230.046" y2="471.954"/>
				</g>
				
					<line fill="none" stroke="#D7BE8A" stroke-width="7" stroke-linecap="round" stroke-linejoin="round" stroke-miterlimit="10" x1="380.988" y1="321.158" x2="357.465" y2="344.679"/>
				
					<line fill="none" stroke="#D7BE8A" stroke-width="7" stroke-linecap="round" stroke-linejoin="round" stroke-miterlimit="10" x1="398.927" y1="303.218" x2="388.533" y2="313.61"/>
				
					<line fill="none" stroke="#D7BE8A" stroke-width="7" stroke-linecap="round" stroke-linejoin="round" stroke-miterlimit="10" x1="213.218" y1="488.927" x2="223.61" y2="478.535"/>
			</g>
			<g>
				<g>
					
						<line fill="none" stroke="#D7BE8A" stroke-width="7" stroke-linecap="round" stroke-linejoin="round" stroke-miterlimit="10" x1="207.179" y1="353.899" x2="239.229" y2="367.554"/>
					
						<line fill="none" stroke="#D7BE8A" stroke-width="7" stroke-linecap="round" stroke-linejoin="round" stroke-miterlimit="10" x1="372.771" y1="424.446" x2="404.821" y2="438.101"/>
				</g>
				<g>
					
						<line fill="none" stroke="#D7BE8A" stroke-width="7" stroke-linecap="round" stroke-linejoin="round" stroke-miterlimit="10" x1="348.1" y1="297.179" x2="334.446" y2="329.229"/>
					
						<line fill="none" stroke="#D7BE8A" stroke-width="7" stroke-linecap="round" stroke-linejoin="round" stroke-miterlimit="10" x1="277.554" y1="462.771" x2="263.9" y2="494.821"/>
				</g>
			</g>
			<g>
				<g>
					
						<line fill="none" stroke="#D7BE8A" stroke-width="7" stroke-linecap="round" stroke-linejoin="round" stroke-miterlimit="10" x1="265.893" y1="296.353" x2="278.9" y2="328.671"/>
					
						<line fill="none" stroke="#D7BE8A" stroke-width="7" stroke-linecap="round" stroke-linejoin="round" stroke-miterlimit="10" x1="333.1" y1="463.329" x2="346.108" y2="495.646"/>
				</g>
				<g>
					
						<line fill="none" stroke="#D7BE8A" stroke-width="7" stroke-linecap="round" stroke-linejoin="round" stroke-miterlimit="10" x1="405.647" y1="355.893" x2="373.328" y2="368.9"/>
					
						<line fill="none" stroke="#D7BE8A" stroke-width="7" stroke-linecap="round" stroke-linejoin="round" stroke-miterlimit="10" x1="238.671" y1="423.1" x2="206.353" y2="436.107"/>
				</g>
			</g>
		</g>
	</g>
</g>
</svg>
